<svg width="18" height="24" viewBox="0 0 18 24" fill="none" xmlns="http://www.w3.org/2000/svg">
  <path d="M10.4766 1.5C4.6875 1.5 0 6.20156 0 12C0 17.7984 4.6875 22.5 10.4766 22.5C13.3172 22.5 15.8906 21.3656 17.7797 19.5281C18.0141 19.2984 18.075 18.9422 17.925 18.6516C17.775 18.3609 17.4516 18.1969 17.1281 18.2531C16.6687 18.3328 16.2 18.375 15.7172 18.375C11.175 18.375 7.49063 14.6812 7.49063 10.125C7.49063 7.04062 9.17813 4.35469 11.6766 2.93906C11.9625 2.775 12.1078 2.44688 12.0375 2.12813C11.9672 1.80938 11.6953 1.57031 11.3672 1.54219C11.0719 1.51875 10.7766 1.50469 10.4766 1.50469V1.5Z" fill="#024A60"/>
</svg>
